#!OML:ASF H:\ManfredETheater\Project 1\Capture day 1\Session 1\subject.ASF
:FULLY-SPECIFIED
:DEGREES
243
root 1.64525 17.3846 -34.453 200.381 -20.7291 -184.622
lowerback 30.7867 1.55571 -1.97892
upperback 2.3565 0.616194 -0.381844
thorax -13.5159 0.10359 0.4857
lowerneck -14.3116 -10.129 -10.4799
upperneck -4.80604 -12.6881 14.5725
head 2.49532 -6.18808 5.17399
rclavicle 2.22639e-014 2.38542e-015
rhumerus -16.2608 -8.59589 -86.057
rradius 41.7119
rwrist -1.04287
rhand -27.6055 -2.34024
rfingers 7.12502
rthumb -1.00492 -32.3176
lclavicle 2.22639e-014 2.38542e-015
lhumerus -37.9208 -0.6138 88.0158
lradius 57.3127
lwrist -9.57215
lhand -28.9521 -12.7461
lfingers 7.12502
lthumb -2.30546 17.2212
rfemur -53.3597 -12.9388 15.1058
rtibia 55.1881
rfoot -5.93345 -12.9158
rtoes -22.927
lfemur -62.6706 -9.31591 -14.6361
ltibia 49.4295
lfoot -1.01772 -18.3225
ltoes 3.13797
244
root 1.59949 17.2984 -34.5804 200.03 -19.9341 -184.55
lowerback 30.0257 1.51081 -1.76751
upperback 2.21765 0.70074 -0.311744
thorax -13.3397 0.148861 0.415919
lowerneck -14.3347 -9.93049 -10.3385
upperneck -4.14786 -12.4216 13.8377
head 2.59394 -6.03166 4.9434
rclavicle 3.89618e-014 1.74931e-014
rhumerus -16.9466 -8.82395 -85.9075
rradius 41.7284
rwrist -1.0124
rhand -27.4219 -2.17249
rfingers 7.12502
rthumb -0.827608 -32.1506
lclavicle 3.89618e-014 1.74931e-014
lhumerus -38.9417 -0.721819 88.3337
lradius 58.2463
lwrist -8.97015
lhand -28.7246 -13.0733
lfingers 7.12502
lthumb -2.08578 16.8962
rfemur -53.1091 -13.8748 15.4873
rtibia 55.6739
rfoot -7.00448 -11.4841
rtoes -24.6096
lfemur -62.1834 -8.91725 -14.9404
ltibia 49.5726
lfoot 0.243611 -17.9375
ltoes 5.24593
245
root 1.55201 17.2173 -34.7004 199.446 -19.062 -184.44
lowerback 29.4932 1.48013 -1.57894
upperback 2.12945 0.774024 -0.219606
thorax -13.2031 0.184164 0.386762
lowerneck -14.3576 -9.68579 -10.1879
upperneck -3.55176 -12.092 13.0941
head 2.6696 -5.85207 4.71699
rclavicle -3.97569e-016 1.43125e-014
rhumerus -17.5356 -8.99382 -85.7815
rradius 41.812
rwrist -0.863242
rhand -27.1641 -1.97851
rfingers 7.12502
rthumb -0.57858 -31.9575
lclavicle -3.97569e-016 1.43125e-014
lhumerus -39.8827 -0.726448 88.6182
lradius 59.1404
lwrist -8.39434
lhand -28.4665 -13.4248
lfingers 7.12502
lthumb -1.83648 16.547
rfemur -52.9672 -14.8252 15.8906
rtibia 56.696
rfoot -8.11114 -9.87278
rtoes -25.5345
lfemur -61.4825 -8.52114 -15.2453
ltibia 50.0701
lfoot 0.750753 -17.5461
ltoes 7.09637
246
root 1.50355 17.1442 -34.8145 198.676 -18.0586 -184.375
lowerback 29.1311 1.48601 -1.52085
upperback 2.47006 0.830972 -0.142323
thorax -13.4383 0.2149 0.444818
lowerneck -14.3717 -9.39626 -10.0261
upperneck -3.03862 -11.7031 12.3587
head 2.71703 -5.65132 4.49935
rclavicle 3.29983e-014 -2.78299e-014
rhumerus -18.0129 -9.07099 -85.6938
rradius 41.9495
rwrist -0.651144
rhand -26.8606 -1.78448
rfingers 7.12502
rthumb -0.285453 -31.764
lclavicle 3.29983e-014 -2.78299e-014
lhumerus -40.7488 -0.630571 88.8646
lradius 60.0013
lwrist -7.85904
lhand -28.2157 -13.7581
lfingers 7.12502
lthumb -1.5942 16.2156
rfemur -52.8334 -15.6487 16.1195
rtibia 58.0492
rfoot -9.0285 -8.23466
rtoes -25.4887
lfemur -60.6078 -8.12475 -15.6102
ltibia 50.9101
lfoot 0.538022 -17.0775
ltoes 8.49257
247
root 1.45484 17.0803 -34.9251 197.766 -16.923 -184.36
lowerback 29.0466 1.53525 -1.61608
upperback 2.45825 0.873888 -0.0601536
thorax -13.4118 0.241057 0.579138
lowerneck -14.3574 -9.07214 -9.84756
upperneck -2.61898 -11.2714 11.6425
head 2.73288 -5.43712 4.29157
rclavicle -2.50469e-014 -3.97569e-015
rhumerus -18.3771 -9.03473 -85.6545
rradius 42.128
rwrist -0.426395
rhand -26.5486 -1.61614
rfingers 7.12502
rthumb 0.0159298 -31.5959
lclavicle -2.50469e-014 -3.97569e-015
lhumerus -41.5445 -0.461158 89.0766
lradius 60.8307
lwrist -7.36294
lhand -28.0148 -13.9847
lfingers 7.12502
lthumb -1.40019 15.9905
rfemur -52.6138 -16.2316 16.1052
rtibia 59.5172
rfoot -9.61235 -6.69561
rtoes -24.8262
lfemur -59.6389 -7.70685 -16.0156
ltibia 52.0626
lfoot -0.206218 -16.5016
ltoes 9.20341
248
root 1.40702 17.0256 -35.0352 196.77 -15.7032 -184.383
lowerback 29.1147 1.61347 -1.83069
upperback 2.46835 0.902775 0.0130015
thorax -13.4422 0.264063 0.777369
lowerneck -14.3198 -8.72413 -9.64077
upperneck -2.25839 -10.8138 10.9483
head 2.72988 -5.21489 4.08947
rclavicle -5.52621e-014 -1.35174e-014
rhumerus -18.6631 -8.90621 -85.6666
rradius 42.3565
rwrist -0.225378
rhand -26.2554 -1.49729
rfingers 7.12502
rthumb 0.299035 -31.4768
lclavicle -5.52621e-014 -1.35174e-014
lhumerus -42.2759 -0.282167 89.2623
lradius 61.6074
lwrist -6.89518
lhand -27.9236 -14.0642
lfingers 7.12502
lthumb -1.31213 15.9116
rfemur -52.2334 -16.5428 15.8551
rtibia 60.9137
rfoot -9.99061 -5.26562
rtoes -24.2743
lfemur -58.6619 -7.25412 -16.4335
ltibia 53.4708
lfoot -1.23152 -15.8543
ltoes 9.24775
249
root 1.3626 16.9788 -35.1481 195.779 -14.4633 -184.444
lowerback 29.2235 1.70867 -2.15439
upperback 2.47799 0.914335 0.0806158
thorax -13.4963 0.284961 1.03923
lowerneck -14.2713 -8.36647 -9.40201
upperneck -1.91671 -10.3491 10.2742
head 2.72369 -4.99141 3.8885
rclavicle -1.66979e-014 1.19271e-014
rhumerus -18.896 -8.69862 -85.7243
rradius 42.6051
rwrist -0.101107
rhand -26.0266 -1.41494
rfingers 7.12502
rthumb 0.520066 -31.394
lclavicle -1.66979e-014 1.19271e-014
lhumerus -42.9362 -0.157191 89.4343
lradius 62.2978
lwrist -6.44384
lhand -27.9778 -13.9861
lfingers 7.12502
lthumb -1.36444 15.9892
rfemur -51.6714 -16.6172 15.44
rtibia 62.1108
rfoot -10.323 -3.99605
rtoes -24.0392
lfemur -57.7802 -6.76261 -16.8332
ltibia 55.0521
lfoot -2.24777 -15.2324
ltoes 8.9744
250
root 1.32346 16.9392 -35.2646 194.865 -13.2864 -184.496
lowerback 29.3468 1.7982 -2.51147
upperback 2.07298 0.912093 0.19548
thorax -13.2266 0.295131 1.29289
lowerneck -14.2351 -8.0192 -9.12599
upperneck -1.54101 -9.90286 9.61206
head 2.73543 -4.7767 3.68114
rclavicle 8.74653e-015 2.38542e-015
rhumerus -19.1417 -8.52351 -85.8133
rradius 42.9251
rwrist -0.0149049
rhand -25.8888 -1.34195
rfingers 7.12502
rthumb 0.653171 -31.3207
lclavicle 8.74653e-015 2.38542e-015
lhumerus -43.5106 -0.157984 89.6115
lradius 62.8651
lwrist -5.99326
lhand -28.1744 -13.7668
lfingers 7.12502
lthumb -1.55432 16.2073
rfemur -50.9682 -16.5223 14.9912
rtibia 63.0401
rfoot -10.7591 -2.90174
rtoes -24.1439
lfemur -57.0874 -6.24839 -17.1399
ltibia 56.7111
lfoot -3.01181 -14.7698
ltoes 8.00461
251
root 1.29017 16.9074 -35.3845 194.073 -12.2332 -184.502
lowerback 29.2754 1.8525 -2.81752
upperback 2.03162 0.897568 0.289755
thorax -13.2475 0.308484 1.56732
lowerneck -14.2475 -7.69234 -8.82301
upperneck -1.09001 -9.48393 8.9601
head 2.78412 -4.57352 3.46609
rclavicle 1.19271e-015 -7.15625e-015
rhumerus -19.4299 -8.41098 -85.9161
rradius 43.3232
rwrist 0.0279227
rhand -25.8318 -1.29136
rfingers 7.12502
rthumb 0.708194 -31.2699
lclavicle 1.19271e-015 -7.15625e-015
lhumerus -43.9658 -0.327768 89.8048
lradius 63.2745
lwrist -5.54573
lhand -28.4736 -13.4174
lfingers 7.12502
lthumb -1.84329 16.5544
rfemur -50.1844 -16.3203 14.6158
rtibia 63.6797
rfoot -11.2831 -2.02892
rtoes -24.4121
lfemur -56.6133 -5.73605 -17.3005
ltibia 58.3489
lfoot -3.45046 -14.5958
ltoes 6.90591
252
root 1.26283 16.8852 -35.5084 193.401 -11.3696 -184.451
lowerback 29.0008 1.84913 -3.01568
upperback 2.35261 0.862769 0.341692
thorax -13.5467 0.324757 1.8627
lowerneck -14.3161 -7.39451 -8.5026
upperneck -0.550898 -9.101 8.31454
head 2.87547 -4.38624 3.2431
rclavicle -1.70955e-014 1.43125e-014
rhumerus -19.7974 -8.40138 -86.0077
rradius 43.8003
rwrist 0.0438976
rhand -25.8669 -1.22745
rfingers 7.12502
rthumb 0.674311 -31.2061
lclavicle -1.70955e-014 1.43125e-014
lhumerus -44.2852 -0.68618 90.0188
lradius 63.5015
lwrist -5.11613
lhand -28.7888 -12.9839
lfingers 7.12502
lthumb -2.14775 16.9851
rfemur -49.3112 -16.1009 14.3689
rtibia 64.0338
rfoot -11.8869 -1.46525
rtoes -24.7492
lfemur -56.2957 -5.28057 -17.3008
ltibia 59.8813
lfoot -3.57737 -14.712
ltoes 5.66632
253
root 1.24088 16.8732 -35.6349 192.845 -10.6887 -184.339
lowerback 28.6445 1.79822 -3.10228
upperback 2.26069 0.817505 0.462205
thorax -13.4674 0.322398 2.06975
lowerneck -14.433 -7.1266 -8.17909
upperneck 0.0639192 -8.7531 7.67569
head 3.00474 -4.21552 3.01565
rclavicle -2.38542e-015 1.43125e-014
rhumerus -20.2621 -8.46357 -86.0665
rradius 44.3475
rwrist 0.013702
rhand -25.9821 -1.15336
rfingers 7.12502
rthumb 0.563079 -31.1324
lclavicle -2.38542e-015 1.43125e-014
lhumerus -44.4619 -1.21403 90.2487
lradius 63.5477
lwrist -4.73312
lhand -29.0216 -12.5354
lfingers 7.12502
lthumb -2.37255 17.4312
rfemur -48.3733 -15.8927 14.2745
rtibia 64.1182
rfoot -12.541 -1.19617
rtoes -25.044
lfemur -56.0774 -4.89526 -17.1459
ltibia 61.2473
lfoot -3.41886 -15.1063
ltoes 4.80366
254
root 1.22229 16.8726 -35.7624 192.377 -10.1657 -184.153
lowerback 28.1869 1.70047 -3.04083
upperback 2.14971 0.770471 0.597884
thorax -13.3529 0.31347 2.20786
lowerneck -14.6113 -6.88519 -7.86718
upperneck 0.747655 -8.43313 7.04961
head 3.1719 -4.05849 2.78866
rclavicle -1.11319e-014 0
rhumerus -20.8344 -8.5827 -86.0834
rradius 44.9643
rwrist -0.0455193
rhand -26.1465 -1.07596
rfingers 7.12502
rthumb 0.40422 -31.0553
lclavicle -1.11319e-014 0
lhumerus -44.5063 -1.86466 90.4758
lradius 63.4384
lwrist -4.44157
lhand -29.0576 -12.1053
lfingers 7.12502
lthumb -2.40735 17.8608
rfemur -47.3617 -15.7072 14.3383
rtibia 63.9513
rfoot -13.2147 -1.17264
rtoes -25.2083
lfemur -55.8888 -4.58512 -16.8367
ltibia 62.3977
lfoot -3.10753 -15.6949
ltoes 4.12373
255
root 1.20485 16.8841 -35.889 191.956 -9.75247 -183.901
lowerback 27.6908 1.56904 -2.83017
upperback 2.02458 0.729171 0.736897
thorax -13.2308 0.299646 2.25979
lowerneck -14.8311 -6.66247 -7.57749
upperneck 1.46755 -8.13094 6.44755
head 3.36385 -3.91138 2.56952
rclavicle -1.23246e-014 1.27222e-014
rhumerus -21.5058 -8.70967 -86.0564
rradius 45.6282
rwrist -0.141301
rhand -26.3461 -0.976726
rfingers 7.12502
rthumb 0.211435 -30.9564
lclavicle -1.23246e-014 1.27222e-014
lhumerus -44.4429 -2.56882 90.6717
lradius 63.2133
lwrist -4.29705
lhand -28.8218 -11.7275
lfingers 7.12502
lthumb -2.17964 18.2411
rfemur -46.2569 -15.5297 14.5186
rtibia 63.5567
rfoot -13.8617 -1.33174
rtoes -25.3117
lfemur -55.6522 -4.36111 -16.3954
ltibia 63.2979
lfoot -2.67913 -16.415
ltoes 3.6425
256
root 1.18701 16.9087 -36.0145 191.564 -9.37379 -183.669
lowerback 27.1899 1.43435 -2.56281
upperback 1.89597 0.694258 0.849917
thorax -13.1079 0.284233 2.24554
lowerneck -15.0893 -6.45062 -7.31391
upperneck 2.20319 -7.83683 5.88094
head 3.57357 -3.76974 2.36371
rclavicle -1.98785e-015 3.18055e-015
rhumerus -22.2555 -8.82021 -85.9958
rradius 46.3216
rwrist -0.241789
rhand -26.5402 -0.866885
rfingers 7.12502
rthumb 0.0239675 -30.8466
lclavicle -1.98785e-015 3.18055e-015
lhumerus -44.2971 -3.25062 90.807
lradius 62.9192
lwrist -4.34097
lhand -28.2934 -11.4622
lfingers 7.12502
lthumb -1.66933 18.511
rfemur -45.0577 -15.3275 14.6861
rtibia 62.965
rfoot -14.4357 -1.59516
rtoes -25.3839
lfemur -55.2821 -4.23429 -15.9218
ltibia 63.9154
lfoot -2.22904 -17.1861
ltoes 3.43174
